<?xml version="1.0" encoding="UTF-8"?><svg id="a" xmlns="http://www.w3.org/2000/svg" viewBox="0 0 228.1 56"><path d="M18.59,.27h9.3V23.49h-9.3V.27Zm0,32.51h9.3v23.22h-9.3v-23.22ZM0,.27H9.3V56H0V.27Z" style="fill:#00a1e1;"/><path d="M65.08,28.14V.27h-9.3V28.14c0,2.56-2.09,4.64-4.65,4.64s-4.65-2.08-4.65-4.64V.27h-9.3V28.14c0,7.71,6.23,13.93,13.95,13.93s13.95-6.22,13.95-13.93c0,0,0,0,0,0Z" style="fill:#e6302b;"/><g><path d="M90.12,23.33V13.37h-3.79v9.96h-3.79V.26h3.79V9.83h3.79V.26h3.79V23.33h-3.78m13.45,.27c-3.16,0-5.68-1.94-5.68-5.62V5.75C97.89,1.9,100.42,0,103.57,0s5.68,1.9,5.68,5.62v12.23c0,3.81-2.52,5.75-5.68,5.75h0Zm1.89-17.99c0-1.27-.73-2.04-1.89-2.04s-1.89,.77-1.89,2.04v12.37c0,1.27,.73,2.01,1.89,2.01s1.89-.73,1.89-2.01V5.62h0Zm13.32,17.99c-3.16,0-5.68-1.94-5.68-5.62V5.75C113.11,1.9,115.63,0,118.79,0s5.68,1.9,5.68,5.62v1.67h-3.79v-1.67c0-1.27-.73-2.04-1.89-2.04s-1.89,.77-1.89,2.04v12.37c0,1.27,.73,2.01,1.89,2.01s1.89-.73,1.89-2.01v-4.21h-2.13v-3.44h5.91v7.52c0,3.81-2.52,5.75-5.68,5.75h0Zm9.66-.27V.26h10.23V3.81h-6.44v6.02h5.45v3.54h-5.45v6.42h6.44v3.54h-10.23m19,.27c-3.19,0-5.71-2.17-5.71-5.28v-1.61h3.79v1.27c0,1.41,.9,2.01,1.93,2.01,1.13,0,1.89-.73,1.89-2.01v-.8c0-1.14-.3-1.8-1.16-2.54l-4.52-3.81c-.76-.64-1.93-2.14-1.93-4.21v-1.14c0-3.21,2.26-5.48,5.71-5.48s5.71,2.17,5.71,5.48v1.54h-3.82v-1.54c0-1.14-.76-1.91-1.89-1.91-1.03,0-1.93,.77-1.93,1.91v.77c0,1.04,.4,1.6,1.07,2.17l4.52,3.81c1.39,1.17,2.06,2.37,2.06,4.21v1.81c0,3.08-2.56,5.35-5.71,5.35h0Zm14.85,0c-3.15,0-5.68-1.94-5.68-5.62V5.75C156.62,1.9,159.15,0,162.3,0s5.68,1.9,5.68,5.62v2.54h-3.79v-2.54c0-1.27-.73-2.04-1.89-2.04s-1.89,.77-1.89,2.04v12.37c0,1.27,.73,2.01,1.89,2.01s1.89-.73,1.89-2.01v-2.81h3.79v2.67c0,3.81-2.52,5.75-5.68,5.75h0Zm17.24-.27V13.37h-3.79v9.96h-3.79V.26h3.79V9.83h3.79V.26h3.79V23.33h-3.79m13.45,.27c-3.16,0-5.68-1.94-5.68-5.62V5.75C187.31,1.9,189.84,0,192.99,0s5.68,1.9,5.68,5.62v12.23c0,3.81-2.52,5.75-5.68,5.75h0Zm1.89-17.99c0-1.27-.73-2.04-1.89-2.04s-1.89,.77-1.89,2.04v12.37c0,1.27,.73,2.01,1.89,2.01s1.89-.73,1.89-2.01V5.62h0Zm13.32,17.99c-3.16,0-5.68-1.94-5.68-5.62V5.75C202.53,1.9,205.05,0,208.21,0s5.68,1.9,5.68,5.62v12.23c0,3.81-2.52,5.75-5.68,5.75h0Zm1.89-17.99c0-1.27-.73-2.04-1.89-2.04s-1.89,.77-1.89,2.04v12.37c0,1.27,.73,2.01,1.89,2.01s1.89-.73,1.89-2.01V5.62h0Zm7.77,17.72V.26h3.78V19.79h6.44v3.54h-10.23" style="fill:#00a1e1;"/><path d="M88.19,55.91c-3.12,0-5.65-1.94-5.65-5.62v-17.72h3.79v17.72c0,1.27,.73,2.01,1.86,2.01s1.93-.74,1.93-2.01v-17.72h3.79v17.59c0,3.81-2.52,5.75-5.71,5.75Zm16.28-19.93v19.66h-3.79v-19.66h-4.32v-3.41h12.43v3.41h-4.32m14.28,19.66v-7.16c0-1.67-.4-2.54-2.03-2.54h-1.76v9.7h-3.79v-23.07h5.78c3.69,0,5.58,2.14,5.58,5.85v1.64c0,2-.6,3.34-1.89,4.08,1.3,.67,1.89,1.94,1.89,4.08v7.42h-3.79Zm0-16.99c0-1.64-.4-2.54-2.03-2.54h-1.76v6.29h1.76c1.63,0,2.03-.94,2.03-2.58v-1.17h0Zm7.77,16.99v-23.07h10.23v3.54h-6.44v6.02h5.45v3.54h-5.45v6.42h6.44v3.54m9.4,.27c-3.16,0-5.68-1.94-5.68-5.62v-12.24c0-3.85,2.52-5.75,5.68-5.75s5.68,1.9,5.68,5.62v2.54h-3.78v-2.54c0-1.27-.73-2.04-1.89-2.04s-1.89,.77-1.89,2.04v12.37c0,1.27,.73,2.01,1.89,2.01s1.89-.74,1.89-2.01v-2.81h3.79v2.67c0,3.81-2.52,5.75-5.68,5.75h0Zm17.24-.27v-9.97h-3.79v9.96h-3.79v-23.07h3.79v9.56h3.79v-9.56h3.79v23.07m10.56-19.66v19.66h-3.79v-19.66h-4.32v-3.41h12.43v3.41h-4.32" style="fill:#e6302b;"/></g></svg>